<?xml version="1.0" standalone="no"?>
<!DOCTYPE svg PUBLIC "-//W3C//DTD SVG 20010904//EN"
 "http://www.w3.org/TR/2001/REC-SVG-20010904/DTD/svg10.dtd">
<svg version="1.0" xmlns="http://www.w3.org/2000/svg"
 width="700.000000pt" height="700.000000pt" viewBox="0 0 700.000000 700.000000"
 preserveAspectRatio="xMidYMid meet">
<metadata>
Created by potrace 1.14, written by Peter Selinger 2001-2017
</metadata>
<g transform="translate(0.000000,700.000000) scale(0.100000,-0.100000)"
fill="#000000" stroke="none">
<path d="M2355 6348 c-113 -8 -153 -14 -207 -29 -24 -6 -53 -13 -65 -15 -43
-8 -169 -57 -248 -97 -179 -89 -365 -241 -485 -397 -19 -25 -37 -47 -40 -50
-15 -14 -92 -143 -118 -198 -52 -107 -101 -273 -119 -405 -10 -69 -10 -338 0
-407 48 -336 224 -653 482 -867 62 -51 161 -123 170 -123 3 0 22 -10 43 -23
100 -63 280 -125 447 -156 128 -24 383 -22 495 3 450 100 805 374 1004 773 72
144 96 231 112 398 4 45 4 356 0 385 -2 14 -7 48 -10 77 -9 70 -41 194 -73
277 -104 275 -373 559 -663 704 -123 61 -226 100 -310 117 -14 3 -47 10 -75
16 -27 6 -88 12 -135 15 -47 3 -92 6 -100 7 -8 1 -55 -1 -105 -5z"/>
<path d="M5287 4124 c-1 -1 -37 -4 -79 -7 -98 -7 -155 -24 -178 -54 -14 -19
-18 -43 -19 -135 -2 -145 -9 -208 -23 -225 -6 -8 -46 -31 -87 -52 -42 -21
-105 -57 -141 -79 -36 -23 -87 -53 -114 -68 l-49 -26 -56 29 c-31 16 -97 51
-148 77 -71 37 -98 47 -119 42 -83 -21 -313 -361 -385 -570 -27 -77 -27 -81
-11 -108 20 -34 93 -92 207 -163 l80 -50 1 -234 1 -233 -101 -68 c-104 -69
-176 -131 -193 -164 -14 -26 -1 -69 56 -191 89 -189 207 -369 304 -463 l44
-43 161 91 162 91 74 -50 c71 -48 280 -164 316 -176 17 -5 19 -22 22 -185 2
-148 6 -182 19 -195 9 -9 61 -28 115 -42 92 -23 109 -25 255 -19 86 4 165 8
177 11 11 2 47 6 79 10 191 19 192 20 199 264 2 79 5 145 6 146 2 1 56 30 122
64 65 34 155 87 200 117 l82 55 50 -28 c27 -15 67 -37 89 -50 74 -44 149 -76
176 -76 40 0 82 35 152 131 124 170 250 397 262 475 8 47 -15 98 -56 130 -19
14 -79 51 -134 82 -55 32 -104 63 -110 70 -6 7 -9 85 -8 196 1 101 2 204 3
229 l0 46 121 79 c123 81 189 141 189 173 -1 139 -310 622 -417 648 -26 7
-113 -34 -223 -104 l-75 -48 -85 49 c-47 27 -130 72 -185 100 -159 80 -153 71
-159 282 -2 72 -7 138 -11 147 -11 28 -85 56 -165 64 -64 6 -388 12 -393 8z
m318 -1134 c268 -103 414 -377 336 -630 -47 -152 -189 -311 -323 -362 -66 -25
-117 -33 -204 -31 -75 1 -171 32 -249 81 -68 43 -179 162 -210 225 -25 52 -29
71 -30 162 -1 56 2 128 7 160 31 200 149 339 341 401 97 31 242 29 332 -6z"/>
<path d="M1348 3185 c-2 -2 -32 -6 -67 -9 -72 -7 -87 -10 -193 -37 -242 -62
-490 -217 -700 -438 -217 -228 -345 -511 -376 -831 -9 -91 -8 -659 0 -690 3
-8 8 -33 13 -55 23 -120 128 -256 240 -313 77 -39 133 -53 220 -58 350 -19
3295 -18 3800 1 283 10 310 16 349 68 17 23 21 42 20 106 0 43 -6 92 -14 110
-13 32 -15 32 -59 27 -25 -3 -86 -18 -136 -32 -127 -38 -237 -38 -319 -1 -126
58 -254 192 -384 402 -96 156 -196 388 -217 505 -29 157 13 287 126 395 168
160 161 152 149 175 -6 12 -36 40 -67 63 -105 78 -142 118 -176 186 -31 64
-32 68 -32 201 1 74 4 157 8 183 l6 48 -87 -2 c-134 -2 -260 -26 -451 -83 -83
-26 -239 -59 -336 -71 -92 -13 -366 -11 -469 2 -131 16 -255 46 -386 93 -58
20 -127 41 -155 45 -46 8 -301 16 -307 10z"/>
</g>
</svg>
