<?xml version="1.0" encoding="UTF-8" standalone="no"?>
<svg
   xmlns:dc="http://purl.org/dc/elements/1.1/"
   xmlns:cc="http://creativecommons.org/ns#"
   xmlns:rdf="http://www.w3.org/1999/02/22-rdf-syntax-ns#"
   xmlns:svg="http://www.w3.org/2000/svg"
   xmlns="http://www.w3.org/2000/svg"
   xmlns:sodipodi="http://sodipodi.sourceforge.net/DTD/sodipodi-0.dtd"
   xmlns:inkscape="http://www.inkscape.org/namespaces/inkscape"
   width="512"
   height="512"
   viewBox="0 0 135.46666 135.46667"
   version="1.1"
   id="svg8"
   inkscape:version="1.0.2 (1.0.2+r75+1)"
   sodipodi:docname="favicon.svg">
  <defs
     id="defs2" />
  <sodipodi:namedview
     id="base"
     pagecolor="#ffffff"
     bordercolor="#666666"
     borderopacity="1.0"
     inkscape:pageopacity="0.0"
     inkscape:pageshadow="2"
     inkscape:zoom="1.1113174"
     inkscape:cx="105.14776"
     inkscape:cy="274.99354"
     inkscape:document-units="px"
     inkscape:current-layer="layer1"
     inkscape:document-rotation="0"
     showgrid="false"
     units="px"
     inkscape:window-width="1853"
     inkscape:window-height="1025"
     inkscape:window-x="67"
     inkscape:window-y="27"
     inkscape:window-maximized="1" />
  <metadata
     id="metadata5">
    <rdf:RDF>
      <cc:Work
         rdf:about="">
        <dc:format>image/svg+xml</dc:format>
        <dc:type
           rdf:resource="http://purl.org/dc/dcmitype/StillImage" />
        <dc:title></dc:title>
      </cc:Work>
    </rdf:RDF>
  </metadata>
  <g
     inkscape:label="Vrstva 1"
     inkscape:groupmode="layer"
     id="layer1">
    <path
       style="fill:#112d53;stroke-width:0.566858;fill-opacity:1"
       d="M 7.7231566,120.74561 C 4.6155349,119.99958 2.2885871,118.15351 1.0679373,115.46571 0.22778933,113.61574 0.01018835,111.7427 2.7534791e-4,106.27555 -0.01493465,97.875643 0.59561929,94.394383 2.9218871,89.617553 6.4887538,82.29326 14.899551,75.7521 22.597829,74.31537 c 4.415284,-0.82403 9.250252,-0.70033 11.639093,0.2978 6.992444,2.92163 16.416134,3.15089 24.423003,0.59417 2.49296,-0.79605 5.720119,-1.45062 7.171469,-1.45458 l 2.63882,-0.006 -0.29883,3.29557 c -0.36102,3.98142 0.6485,6.32028 3.535,8.18987 1.07747,0.69789 1.96219,1.557463 1.96606,1.910173 0.004,0.35272 -0.88606,1.32248 -1.97759,2.15502 -2.43325,1.85594 -3.68398,4.16149 -3.68398,6.79088 0,4.421177 4.77935,13.678477 9.057229,17.543307 2.80741,2.53632 5.30781,3.03297 9.035779,1.79473 1.57041,-0.5216 3.116097,-0.78718 3.434877,-0.59016 0.31878,0.19689 0.5796,1.35453 0.5796,2.57224 0,1.70227 -0.29481,2.38243 -1.27544,2.94256 -1.000157,0.57128 -9.655946,0.74921 -40.105243,0.82444 -22.215239,0.0548 -39.7646155,-0.12855 -41.0145194,-0.42854 z m 92.8820834,-1.89076 c -0.31177,-0.12555 -1.268342,-0.38305 -2.125732,-0.57215 -1.50423,-0.33176 -1.55885,-0.47213 -1.55885,-4.00607 v -3.66226 l -2.409149,-1.21927 c -1.32503,-0.67059 -3.09874,-1.70501 -3.94157,-2.29871 l -1.53241,-1.07948 -3.159667,1.78322 -3.159659,1.78321 -1.92801,-2.04429 c -2.05084,-2.17454 -5.977019,-9.478367 -5.977019,-11.118997 0,-0.55387 1.267679,-1.8168 2.910729,-2.89984 l 2.91072,-1.91865 -0.0197,-4.51695 -0.0197,-4.516963 -2.89098,-1.85514 c -1.59004,-1.02032 -2.890979,-2.2189 -2.890979,-2.6635 -4e-5,-2.87649 6.225859,-12.80637 8.029379,-12.80637 0.58457,0 2.07306,0.6377 3.307759,1.41713 1.23469,0.77944 2.492267,1.41715 2.794607,1.41715 0.30233,0 1.64661,-0.7332 2.98727,-1.62932 1.34066,-0.89613 3.01151,-1.80612 3.713,-2.0222 1.150429,-0.35439 1.275429,-0.75164 1.275429,-4.0533 0,-3.40762 0.10042,-3.69859 1.45405,-4.21325 1.884452,-0.71646 11.646372,-0.71646 13.530812,0 1.349,0.5129 1.45404,0.8115 1.45404,4.13334 0,3.48696 0.0482,3.60278 1.8423,4.43212 1.01326,0.46839 2.87152,1.45218 4.12944,2.18623 l 2.28718,1.33462 2.37815,-1.50126 c 1.30799,-0.8257 2.74599,-1.50126 3.19554,-1.50126 1.93661,0 8.27312,9.66405 8.27444,12.61963 2.6e-4,0.5874 -1.24122,1.79333 -3.01295,2.92671 l -3.01338,1.92763 -0.0294,4.572353 -0.0293,4.57233 3.04285,1.71728 c 3.24326,1.83039 3.59409,2.65078 2.3551,5.50719 -1.24981,2.881307 -5.06979,8.669267 -6.28193,9.518297 -1.08622,0.76083 -1.45974,0.68334 -4.22315,-0.87624 l -3.03155,-1.71091 -1.53242,1.07948 c -0.84282,0.5937 -2.61654,1.62812 -3.94156,2.29871 l -2.40915,1.21927 v 3.32021 c 0,2.20371 -0.27548,3.54886 -0.81917,4.00008 -0.77478,0.64302 -10.71973,1.40976 -11.93514,0.92019 z m 7.73849,-21.882537 c 2.62775,-0.72987 5.89318,-4.29751 6.71001,-7.33102 2.20472,-8.187703 -6.58879,-15.337623 -14.33878,-11.658763 -3.192052,1.51523 -5.074241,4.30291 -5.377941,7.96514 -0.13913,1.677873 -0.0949,3.680513 0.0983,4.450303 0.53515,2.13224 3.160189,4.93037 5.713331,6.09011 2.61899,1.18964 4.25827,1.29995 7.19508,0.48423 z M 43.635945,66.32327 C 27.649098,64.01492 17.514312,48.90735 21.268429,32.98078 c 1.162063,-4.929963 3.313044,-8.678965 7.223405,-12.589894 10.267897,-10.269402 26.486921,-10.5262395 37.31122,-0.590847 6.26474,5.750273 8.69683,11.973921 8.34359,21.351071 -0.18612,4.94058 -0.44653,6.16454 -2.02763,9.53011 -5.12806,10.91566 -16.804959,17.32825 -28.483069,15.64205 z"
       id="path847" />
  </g>
</svg>
